<?xml version="1.0" encoding="UTF-8" standalone="no"?>
<svg
   id="svg3327"
   version="1.1"
   viewBox="0 0 22.028019 21.58353"
   height="21.58353mm"
   width="22.028019mm"
   xmlns="http://www.w3.org/2000/svg"
   xmlns:svg="http://www.w3.org/2000/svg"
   xmlns:rdf="http://www.w3.org/1999/02/22-rdf-syntax-ns#"
   xmlns:cc="http://creativecommons.org/ns#"
   xmlns:dc="http://purl.org/dc/elements/1.1/">
  <defs
     id="defs3321">
    <filter
       style="color-interpolation-filters:sRGB"
       id="filter1112"
       x="-0.089143609"
       width="1.1782872"
       y="-0.059172556"
       height="1.1183451">
      <feGaussianBlur
         stdDeviation="1.4434913"
         id="feGaussianBlur1114" />
    </filter>
  </defs>
  <metadata
     id="metadata3324">
    <rdf:RDF>
      <cc:Work
         rdf:about="">
        <dc:format>image/svg+xml</dc:format>
        <dc:type
           rdf:resource="http://purl.org/dc/dcmitype/StillImage" />
      </cc:Work>
    </rdf:RDF>
  </metadata>
  <path
     style="fill:#7bbeea;fill-opacity:1;stroke-width:0.0287152;stroke-miterlimit:4;stroke-dasharray:none"
     d="M 3.244909,21.144993 C 4.0745189,21.069263 4.8844384,20.600962 5.3479202,19.929032 5.4251992,19.817 6.704288,17.422399 8.1903445,14.607698 9.6764007,11.792997 10.960074,9.3674953 11.042954,9.2176943 11.125834,9.0678914 11.642396,8.09382 12.190866,7.05309 c 0.548472,-1.0407299 1.058817,-1.9760977 1.134099,-2.0785924 0.361207,-0.4917805 0.7737,-0.7398319 1.32191,-0.794932 L 14.867446,4.1574014 14.18815,2.8735408 C 13.776012,2.0946017 13.441203,1.4978883 13.336834,1.3562818 12.821358,0.65688431 11.922511,0.21524149 11.014545,0.21524149 c -0.974038,0 -1.9145585,0.49459359 -2.4261209,1.27582551 -0.2046766,0.3125741 -8.23761624,15.545515 -8.32387587,15.784649 -0.42795163,1.18638 -0.0372744,2.532381 0.95226647,3.280879 0.5988005,0.452937 1.2960632,0.655231 2.0280943,0.588403 z"
     id="path874-1" />
  <path
     style="fill:#1b4b9c;fill-opacity:1;stroke-width:0.0287154;stroke-miterlimit:4;stroke-dasharray:none"
     d="M 7.7611248,19.640476 C 7.6925028,19.603736 7.596557,19.51872 7.5479041,19.451556 7.3838911,19.225143 7.417919,18.864993 7.6209361,18.678527 c 0.096791,-0.0889 3.1368089,-1.731746 3.2644989,-1.764157 0.07497,-0.01903 0.150323,-0.01814 0.232853,0.0028 0.142688,0.0361 3.182166,1.66588 3.284027,1.760908 0.319898,0.298434 0.20058,0.860958 -0.211463,0.996945 -0.25203,0.08317 -0.293547,0.06599 -1.792427,-0.741725 l -1.393529,-0.750984 -1.3855603,0.75207 c -1.3189993,0.71594 -1.3939172,0.752571 -1.5595063,0.762497 -0.140562,0.0085 -0.1978932,-0.0024 -0.2987078,-0.05638 z"
     id="path894" />
  <path
     style="fill:#5b8eb0;fill-opacity:1;stroke-width:0.264999;stroke-miterlimit:4;stroke-dasharray:none;filter:url(#filter1112)"
     d="m 317.23755,165.76328 c -0.76486,-1.38245 -5.53193,-10.37167 -10.5935,-19.97605 -5.06157,-9.60437 -9.77129,-18.2364 -10.46603,-19.18229 -3.33341,-4.53838 -7.14009,-6.82753 -12.19925,-7.33603 l -2.03554,-0.20459 6.26888,-11.8481 c 25.01859,13.1007 39.80613,37.37416 29.02544,58.54706 z"
     id="path874-5"
     transform="matrix(0.10734853,0,0,0.10769037,-23.288588,-8.130971)" />
  <path
     style="fill:#1b4b9c;fill-opacity:1;stroke-width:0.0287154;stroke-miterlimit:4;stroke-dasharray:none"
     d="M 18.780578,21.165472 C 17.950968,21.089742 17.141049,20.621441 16.677567,19.94951 16.600287,19.837479 15.321199,17.442878 13.835143,14.628178 12.349088,11.813476 11.065413,9.3879728 10.982533,9.2381719 10.899657,9.08837 10.383094,8.1142975 9.8346207,7.0735676 9.2861493,6.0328386 8.7758045,5.0974718 8.7005222,4.9949751 8.3393147,4.5031965 7.9268227,4.2551442 7.3786118,4.2000431 L 7.1580411,4.1778786 7.8373371,2.894019 C 8.2494752,2.1150793 8.5842837,1.5183669 8.6886529,1.3767594 9.2041292,0.67736189 10.102977,0.23572003 11.010942,0.23572003 c 0.974038,0 1.91456,0.49459263 2.426121,1.27582557 0.204677,0.312574 8.237616,15.5455164 8.323876,15.7846494 0.427952,1.186379 0.03728,2.532381 -0.952266,3.280878 -0.5988,0.452937 -1.296064,0.655231 -2.028095,0.588404 z"
     id="path874" />
</svg>
